<svg id="visual" viewBox="0 0 1920 1080" width="1920" height="1080" xmlns="http://www.w3.org/2000/svg" xmlns:xlink="http://www.w3.org/1999/xlink" version="1.1"><g stroke-width="0.5" stroke-linejoin="bevel"><path d="M924 559L905 688L981 584Z" fill="#eeeeee" stroke="#d2d2d2"></path><path d="M905 688L1029 690L981 584Z" fill="#ffffff" stroke="#d2d2d2"></path><path d="M776 575L792 682L905 688Z" fill="#f5f5f5" stroke="#d2d2d2"></path><path d="M924 559L776 575L905 688Z" fill="#ffffff" stroke="#d2d2d2"></path><path d="M988 451L886 463L924 559Z" fill="#ffffff" stroke="#d2d2d2"></path><path d="M924 559L798 498L776 575Z" fill="#ffffff" stroke="#d2d2d2"></path><path d="M886 463L798 498L924 559Z" fill="#ffffff" stroke="#d2d2d2"></path><path d="M1029 690L1112 637L981 584Z" fill="#ffffff" stroke="#d2d2d2"></path><path d="M981 584L988 451L924 559Z" fill="#ffffff" stroke="#d2d2d2"></path><path d="M1188 491L988 451L981 584Z" fill="#f8f8f8" stroke="#d2d2d2"></path><path d="M792 682L857 801L905 688Z" fill="#fcfcfc" stroke="#d2d2d2"></path><path d="M905 688L1014 795L1029 690Z" fill="#ffffff" stroke="#d2d2d2"></path><path d="M1029 690L1120 722L1112 637Z" fill="#ffffff" stroke="#d2d2d2"></path><path d="M857 801L1014 795L905 688Z" fill="#ffffff" stroke="#d2d2d2"></path><path d="M1014 795L1120 722L1029 690Z" fill="#ffffff" stroke="#d2d2d2"></path><path d="M988 451L914 387L886 463Z" fill="#ffffff" stroke="#d2d2d2"></path><path d="M886 463L739 350L798 498Z" fill="#fcfcfc" stroke="#d2d2d2"></path><path d="M798 498L665 582L776 575Z" fill="#ffffff" stroke="#d2d2d2"></path><path d="M776 575L665 582L792 682Z" fill="#f8f8f8" stroke="#d2d2d2"></path><path d="M792 682L749 839L857 801Z" fill="#f8f8f8" stroke="#d2d2d2"></path><path d="M671 437L665 582L798 498Z" fill="#f1f1f1" stroke="#d2d2d2"></path><path d="M1142 389L1012 371L988 451Z" fill="#ffffff" stroke="#d2d2d2"></path><path d="M988 451L1012 371L914 387Z" fill="#eeeeee" stroke="#d2d2d2"></path><path d="M606 719L749 839L792 682Z" fill="#f5f5f5" stroke="#d2d2d2"></path><path d="M857 801L898 917L1014 795Z" fill="#ffffff" stroke="#d2d2d2"></path><path d="M1263 598L1188 491L1112 637Z" fill="#ffffff" stroke="#d2d2d2"></path><path d="M1112 637L1188 491L981 584Z" fill="#eeeeee" stroke="#d2d2d2"></path><path d="M749 839L898 917L857 801Z" fill="#ffffff" stroke="#d2d2d2"></path><path d="M1014 795L1179 881L1120 722Z" fill="#ffffff" stroke="#d2d2d2"></path><path d="M1188 491L1142 389L988 451Z" fill="#f1f1f1" stroke="#d2d2d2"></path><path d="M739 350L671 437L798 498Z" fill="#ffffff" stroke="#d2d2d2"></path><path d="M914 387L739 350L886 463Z" fill="#eeeeee" stroke="#d2d2d2"></path><path d="M922 244L739 350L914 387Z" fill="#f5f5f5" stroke="#d2d2d2"></path><path d="M1312 750L1263 598L1120 722Z" fill="#f1f1f1" stroke="#d2d2d2"></path><path d="M1120 722L1263 598L1112 637Z" fill="#fcfcfc" stroke="#d2d2d2"></path><path d="M1188 491L1253 386L1142 389Z" fill="#ffffff" stroke="#d2d2d2"></path><path d="M546 623L606 719L665 582Z" fill="#ffffff" stroke="#d2d2d2"></path><path d="M665 582L606 719L792 682Z" fill="#fcfcfc" stroke="#d2d2d2"></path><path d="M999 994L1179 881L1014 795Z" fill="#ffffff" stroke="#d2d2d2"></path><path d="M749 839L802 967L898 917Z" fill="#ffffff" stroke="#d2d2d2"></path><path d="M898 917L999 994L1014 795Z" fill="#ffffff" stroke="#d2d2d2"></path><path d="M656 874L802 967L749 839Z" fill="#f5f5f5" stroke="#d2d2d2"></path><path d="M606 719L656 874L749 839Z" fill="#ffffff" stroke="#d2d2d2"></path><path d="M916 1080L999 994L898 917Z" fill="#ffffff" stroke="#d2d2d2"></path><path d="M999 207L922 244L1012 371Z" fill="#ffffff" stroke="#d2d2d2"></path><path d="M1012 371L922 244L914 387Z" fill="#ffffff" stroke="#d2d2d2"></path><path d="M1263 598L1267 447L1188 491Z" fill="#f1f1f1" stroke="#d2d2d2"></path><path d="M1142 389L1141 284L1012 371Z" fill="#f1f1f1" stroke="#d2d2d2"></path><path d="M520 498L546 623L665 582Z" fill="#ffffff" stroke="#d2d2d2"></path><path d="M501 826L595 942L656 874Z" fill="#ffffff" stroke="#d2d2d2"></path><path d="M1253 386L1141 284L1142 389Z" fill="#ffffff" stroke="#d2d2d2"></path><path d="M1179 881L1312 750L1120 722Z" fill="#ffffff" stroke="#d2d2d2"></path><path d="M1263 598L1364 436L1267 447Z" fill="#ffffff" stroke="#d2d2d2"></path><path d="M1267 447L1253 386L1188 491Z" fill="#eeeeee" stroke="#d2d2d2"></path><path d="M739 350L631 332L671 437Z" fill="#ffffff" stroke="#d2d2d2"></path><path d="M671 437L520 498L665 582Z" fill="#ffffff" stroke="#d2d2d2"></path><path d="M617 253L631 332L739 350Z" fill="#ffffff" stroke="#d2d2d2"></path><path d="M1141 284L999 207L1012 371Z" fill="#ffffff" stroke="#d2d2d2"></path><path d="M922 244L789 211L739 350Z" fill="#ffffff" stroke="#d2d2d2"></path><path d="M533 359L520 498L671 437Z" fill="#f5f5f5" stroke="#d2d2d2"></path><path d="M895 78L789 211L922 244Z" fill="#fcfcfc" stroke="#d2d2d2"></path><path d="M999 994L1163 997L1179 881Z" fill="#f5f5f5" stroke="#d2d2d2"></path><path d="M1179 881L1311 853L1312 750Z" fill="#f8f8f8" stroke="#d2d2d2"></path><path d="M1313 927L1311 853L1179 881Z" fill="#ffffff" stroke="#d2d2d2"></path><path d="M802 967L916 1080L898 917Z" fill="#ffffff" stroke="#d2d2d2"></path><path d="M999 994L1049 1080L1163 997Z" fill="#ffffff" stroke="#d2d2d2"></path><path d="M755 1080L916 1080L802 967Z" fill="#ffffff" stroke="#d2d2d2"></path><path d="M501 826L656 874L606 719Z" fill="#ffffff" stroke="#d2d2d2"></path><path d="M656 874L595 942L802 967Z" fill="#f5f5f5" stroke="#d2d2d2"></path><path d="M472 680L606 719L546 623Z" fill="#ffffff" stroke="#d2d2d2"></path><path d="M520 498L472 680L546 623Z" fill="#ffffff" stroke="#d2d2d2"></path><path d="M916 1080L1049 1080L999 994Z" fill="#ffffff" stroke="#d2d2d2"></path><path d="M1253 386L1245 276L1141 284Z" fill="#fcfcfc" stroke="#d2d2d2"></path><path d="M1141 284L1143 162L999 207Z" fill="#ffffff" stroke="#d2d2d2"></path><path d="M1410 265L1245 276L1253 386Z" fill="#ffffff" stroke="#d2d2d2"></path><path d="M1364 436L1253 386L1267 447Z" fill="#ffffff" stroke="#d2d2d2"></path><path d="M472 680L501 826L606 719Z" fill="#eeeeee" stroke="#d2d2d2"></path><path d="M1418 602L1263 598L1312 750Z" fill="#ffffff" stroke="#d2d2d2"></path><path d="M1418 602L1364 436L1263 598Z" fill="#f1f1f1" stroke="#d2d2d2"></path><path d="M617 253L533 359L631 332Z" fill="#ffffff" stroke="#d2d2d2"></path><path d="M631 332L533 359L671 437Z" fill="#ffffff" stroke="#d2d2d2"></path><path d="M520 498L340 618L472 680Z" fill="#ffffff" stroke="#d2d2d2"></path><path d="M789 211L617 253L739 350Z" fill="#ffffff" stroke="#d2d2d2"></path><path d="M647 1080L755 1080L802 967Z" fill="#f5f5f5" stroke="#d2d2d2"></path><path d="M1163 997L1313 927L1179 881Z" fill="#ffffff" stroke="#d2d2d2"></path><path d="M1431 692L1418 602L1312 750Z" fill="#f1f1f1" stroke="#d2d2d2"></path><path d="M1280 1080L1313 927L1163 997Z" fill="#ffffff" stroke="#d2d2d2"></path><path d="M1373 847L1312 750L1311 853Z" fill="#ffffff" stroke="#d2d2d2"></path><path d="M1313 927L1373 847L1311 853Z" fill="#ffffff" stroke="#d2d2d2"></path><path d="M1049 1080L1143 1080L1163 997Z" fill="#fcfcfc" stroke="#d2d2d2"></path><path d="M1373 847L1431 692L1312 750Z" fill="#ffffff" stroke="#d2d2d2"></path><path d="M1245 276L1143 162L1141 284Z" fill="#ffffff" stroke="#d2d2d2"></path><path d="M999 207L993 112L922 244Z" fill="#ffffff" stroke="#d2d2d2"></path><path d="M1143 162L993 112L999 207Z" fill="#eeeeee" stroke="#d2d2d2"></path><path d="M789 211L761 114L617 253Z" fill="#ffffff" stroke="#d2d2d2"></path><path d="M501 826L530 981L595 942Z" fill="#f8f8f8" stroke="#d2d2d2"></path><path d="M595 942L647 1080L802 967Z" fill="#ffffff" stroke="#d2d2d2"></path><path d="M346 961L530 981L501 826Z" fill="#ffffff" stroke="#d2d2d2"></path><path d="M530 981L647 1080L595 942Z" fill="#fcfcfc" stroke="#d2d2d2"></path><path d="M895 78L761 114L789 211Z" fill="#eeeeee" stroke="#d2d2d2"></path><path d="M899 0L895 78L1020 0Z" fill="#fcfcfc" stroke="#d2d2d2"></path><path d="M993 112L895 78L922 244Z" fill="#fcfcfc" stroke="#d2d2d2"></path><path d="M1313 927L1389 927L1373 847Z" fill="#f1f1f1" stroke="#d2d2d2"></path><path d="M1526 859L1555 745L1431 692Z" fill="#f8f8f8" stroke="#d2d2d2"></path><path d="M1280 1080L1389 927L1313 927Z" fill="#ffffff" stroke="#d2d2d2"></path><path d="M1557 521L1431 392L1364 436Z" fill="#ffffff" stroke="#d2d2d2"></path><path d="M1364 436L1410 265L1253 386Z" fill="#fcfcfc" stroke="#d2d2d2"></path><path d="M1245 276L1259 143L1143 162Z" fill="#f5f5f5" stroke="#d2d2d2"></path><path d="M1557 521L1364 436L1418 602Z" fill="#ffffff" stroke="#d2d2d2"></path><path d="M519 126L485 265L617 253Z" fill="#f1f1f1" stroke="#d2d2d2"></path><path d="M617 253L485 265L533 359Z" fill="#f8f8f8" stroke="#d2d2d2"></path><path d="M342 470L340 618L520 498Z" fill="#ffffff" stroke="#d2d2d2"></path><path d="M1143 1080L1280 1080L1163 997Z" fill="#ffffff" stroke="#d2d2d2"></path><path d="M1410 265L1259 143L1245 276Z" fill="#f1f1f1" stroke="#d2d2d2"></path><path d="M1020 0L895 78L993 112Z" fill="#f5f5f5" stroke="#d2d2d2"></path><path d="M342 470L520 498L533 359Z" fill="#ffffff" stroke="#d2d2d2"></path><path d="M472 680L344 747L501 826Z" fill="#ffffff" stroke="#d2d2d2"></path><path d="M340 618L344 747L472 680Z" fill="#f5f5f5" stroke="#d2d2d2"></path><path d="M1431 392L1410 265L1364 436Z" fill="#ffffff" stroke="#d2d2d2"></path><path d="M637 0L612 109L761 114Z" fill="#ffffff" stroke="#d2d2d2"></path><path d="M761 114L612 109L617 253Z" fill="#f8f8f8" stroke="#d2d2d2"></path><path d="M362 332L342 470L533 359Z" fill="#f1f1f1" stroke="#d2d2d2"></path><path d="M344 747L346 808L501 826Z" fill="#ffffff" stroke="#d2d2d2"></path><path d="M402 1080L515 1080L530 981Z" fill="#f8f8f8" stroke="#d2d2d2"></path><path d="M530 981L515 1080L647 1080Z" fill="#f5f5f5" stroke="#d2d2d2"></path><path d="M1020 0L993 112L1117 0Z" fill="#f5f5f5" stroke="#d2d2d2"></path><path d="M895 78L790 0L761 114Z" fill="#ffffff" stroke="#d2d2d2"></path><path d="M1117 0L993 112L1143 162Z" fill="#fcfcfc" stroke="#d2d2d2"></path><path d="M1565 555L1418 602L1431 692Z" fill="#ffffff" stroke="#d2d2d2"></path><path d="M1565 555L1557 521L1418 602Z" fill="#fcfcfc" stroke="#d2d2d2"></path><path d="M1431 392L1532 403L1410 265Z" fill="#ffffff" stroke="#d2d2d2"></path><path d="M1526 859L1373 847L1389 927Z" fill="#eeeeee" stroke="#d2d2d2"></path><path d="M1526 859L1431 692L1373 847Z" fill="#fcfcfc" stroke="#d2d2d2"></path><path d="M415 215L362 332L485 265Z" fill="#f1f1f1" stroke="#d2d2d2"></path><path d="M485 265L362 332L533 359Z" fill="#f8f8f8" stroke="#d2d2d2"></path><path d="M1555 745L1565 555L1431 692Z" fill="#f5f5f5" stroke="#d2d2d2"></path><path d="M899 0L790 0L895 78Z" fill="#ffffff" stroke="#d2d2d2"></path><path d="M1562 931L1526 859L1389 927Z" fill="#eeeeee" stroke="#d2d2d2"></path><path d="M1622 514L1532 403L1557 521Z" fill="#ffffff" stroke="#d2d2d2"></path><path d="M1557 521L1532 403L1431 392Z" fill="#f1f1f1" stroke="#d2d2d2"></path><path d="M263 467L285 572L342 470Z" fill="#ffffff" stroke="#d2d2d2"></path><path d="M342 470L285 572L340 618Z" fill="#ffffff" stroke="#d2d2d2"></path><path d="M340 618L242 711L344 747Z" fill="#f1f1f1" stroke="#d2d2d2"></path><path d="M344 747L257 833L346 808Z" fill="#ffffff" stroke="#d2d2d2"></path><path d="M612 109L519 126L617 253Z" fill="#ffffff" stroke="#d2d2d2"></path><path d="M483 0L519 126L612 109Z" fill="#f8f8f8" stroke="#d2d2d2"></path><path d="M1285 0L1117 0L1259 143Z" fill="#ffffff" stroke="#d2d2d2"></path><path d="M1259 143L1117 0L1143 162Z" fill="#ffffff" stroke="#d2d2d2"></path><path d="M519 126L415 215L485 265Z" fill="#eeeeee" stroke="#d2d2d2"></path><path d="M346 808L346 961L501 826Z" fill="#eeeeee" stroke="#d2d2d2"></path><path d="M285 946L346 961L346 808Z" fill="#ffffff" stroke="#d2d2d2"></path><path d="M1280 1080L1430 1080L1389 927Z" fill="#eeeeee" stroke="#d2d2d2"></path><path d="M362 332L263 467L342 470Z" fill="#ffffff" stroke="#d2d2d2"></path><path d="M285 572L242 711L340 618Z" fill="#ffffff" stroke="#d2d2d2"></path><path d="M255 321L263 467L362 332Z" fill="#eeeeee" stroke="#d2d2d2"></path><path d="M790 0L637 0L761 114Z" fill="#f8f8f8" stroke="#d2d2d2"></path><path d="M519 126L372 156L415 215Z" fill="#eeeeee" stroke="#d2d2d2"></path><path d="M103 699L242 711L90 565Z" fill="#f8f8f8" stroke="#d2d2d2"></path><path d="M346 961L402 1080L530 981Z" fill="#fcfcfc" stroke="#d2d2d2"></path><path d="M1410 265L1374 86L1259 143Z" fill="#ffffff" stroke="#d2d2d2"></path><path d="M1519 159L1374 86L1410 265Z" fill="#fcfcfc" stroke="#d2d2d2"></path><path d="M1691 557L1622 514L1565 555Z" fill="#eeeeee" stroke="#d2d2d2"></path><path d="M1565 555L1622 514L1557 521Z" fill="#ffffff" stroke="#d2d2d2"></path><path d="M1532 403L1549 211L1410 265Z" fill="#f5f5f5" stroke="#d2d2d2"></path><path d="M1635 752L1565 555L1555 745Z" fill="#f5f5f5" stroke="#d2d2d2"></path><path d="M1494 1080L1562 931L1389 927Z" fill="#ffffff" stroke="#d2d2d2"></path><path d="M1628 807L1635 752L1555 745Z" fill="#ffffff" stroke="#d2d2d2"></path><path d="M242 711L257 833L344 747Z" fill="#ffffff" stroke="#d2d2d2"></path><path d="M346 961L231 1080L402 1080Z" fill="#f8f8f8" stroke="#d2d2d2"></path><path d="M1628 807L1555 745L1526 859Z" fill="#ffffff" stroke="#d2d2d2"></path><path d="M257 833L285 946L346 808Z" fill="#ffffff" stroke="#d2d2d2"></path><path d="M1374 86L1285 0L1259 143Z" fill="#ffffff" stroke="#d2d2d2"></path><path d="M1562 931L1628 807L1526 859Z" fill="#f1f1f1" stroke="#d2d2d2"></path><path d="M1430 1080L1494 1080L1389 927Z" fill="#ffffff" stroke="#d2d2d2"></path><path d="M1562 931L1647 994L1628 807Z" fill="#eeeeee" stroke="#d2d2d2"></path><path d="M425 0L372 156L519 126Z" fill="#f8f8f8" stroke="#d2d2d2"></path><path d="M284 201L255 321L362 332Z" fill="#ffffff" stroke="#d2d2d2"></path><path d="M284 201L362 332L415 215Z" fill="#ffffff" stroke="#d2d2d2"></path><path d="M103 699L155 857L242 711Z" fill="#f8f8f8" stroke="#d2d2d2"></path><path d="M1660 338L1549 211L1532 403Z" fill="#fcfcfc" stroke="#d2d2d2"></path><path d="M1374 86L1377 0L1285 0Z" fill="#ffffff" stroke="#d2d2d2"></path><path d="M1549 211L1519 159L1410 265Z" fill="#ffffff" stroke="#d2d2d2"></path><path d="M1635 752L1691 557L1565 555Z" fill="#ffffff" stroke="#d2d2d2"></path><path d="M1622 514L1660 338L1532 403Z" fill="#ffffff" stroke="#d2d2d2"></path><path d="M1763 679L1691 557L1635 752Z" fill="#f1f1f1" stroke="#d2d2d2"></path><path d="M637 0L483 0L612 109Z" fill="#ffffff" stroke="#d2d2d2"></path><path d="M1494 0L1377 0L1374 86Z" fill="#f5f5f5" stroke="#d2d2d2"></path><path d="M293 142L284 201L372 156Z" fill="#ffffff" stroke="#d2d2d2"></path><path d="M372 156L284 201L415 215Z" fill="#fcfcfc" stroke="#d2d2d2"></path><path d="M1644 0L1494 0L1519 159Z" fill="#ffffff" stroke="#d2d2d2"></path><path d="M1815 469L1660 338L1622 514Z" fill="#ffffff" stroke="#d2d2d2"></path><path d="M425 0L293 142L372 156Z" fill="#f1f1f1" stroke="#d2d2d2"></path><path d="M114 379L263 467L255 321Z" fill="#ffffff" stroke="#d2d2d2"></path><path d="M483 0L425 0L519 126Z" fill="#f1f1f1" stroke="#d2d2d2"></path><path d="M1494 1080L1647 994L1562 931Z" fill="#ffffff" stroke="#d2d2d2"></path><path d="M1750 853L1763 679L1635 752Z" fill="#fcfcfc" stroke="#d2d2d2"></path><path d="M242 711L155 857L257 833Z" fill="#ffffff" stroke="#d2d2d2"></path><path d="M257 833L155 857L285 946Z" fill="#ffffff" stroke="#d2d2d2"></path><path d="M285 946L231 1080L346 961Z" fill="#ffffff" stroke="#d2d2d2"></path><path d="M137 464L285 572L263 467Z" fill="#f5f5f5" stroke="#d2d2d2"></path><path d="M158 272L255 321L284 201Z" fill="#f5f5f5" stroke="#d2d2d2"></path><path d="M114 379L137 464L263 467Z" fill="#ffffff" stroke="#d2d2d2"></path><path d="M90 565L242 711L285 572Z" fill="#f5f5f5" stroke="#d2d2d2"></path><path d="M103 957L231 1080L285 946Z" fill="#f5f5f5" stroke="#d2d2d2"></path><path d="M1750 853L1635 752L1628 807Z" fill="#ffffff" stroke="#d2d2d2"></path><path d="M1816 332L1703 258L1660 338Z" fill="#fcfcfc" stroke="#d2d2d2"></path><path d="M1494 1080L1632 1080L1647 994Z" fill="#fcfcfc" stroke="#d2d2d2"></path><path d="M1647 994L1750 853L1628 807Z" fill="#ffffff" stroke="#d2d2d2"></path><path d="M137 464L90 565L285 572Z" fill="#f8f8f8" stroke="#d2d2d2"></path><path d="M1519 159L1494 0L1374 86Z" fill="#ffffff" stroke="#d2d2d2"></path><path d="M1665 124L1519 159L1549 211Z" fill="#f5f5f5" stroke="#d2d2d2"></path><path d="M1920 589L1776 641L1920 707Z" fill="#ffffff" stroke="#d2d2d2"></path><path d="M1763 679L1776 641L1691 557Z" fill="#ffffff" stroke="#d2d2d2"></path><path d="M109 122L284 201L293 142Z" fill="#eeeeee" stroke="#d2d2d2"></path><path d="M109 122L158 272L284 201Z" fill="#ffffff" stroke="#d2d2d2"></path><path d="M137 464L0 480L90 565Z" fill="#ffffff" stroke="#d2d2d2"></path><path d="M158 272L114 379L255 321Z" fill="#f5f5f5" stroke="#d2d2d2"></path><path d="M1799 940L1750 853L1647 994Z" fill="#ffffff" stroke="#d2d2d2"></path><path d="M1815 469L1622 514L1691 557Z" fill="#fcfcfc" stroke="#d2d2d2"></path><path d="M1660 338L1703 258L1549 211Z" fill="#eeeeee" stroke="#d2d2d2"></path><path d="M0 861L103 957L155 857Z" fill="#ffffff" stroke="#d2d2d2"></path><path d="M155 857L103 957L285 946Z" fill="#fcfcfc" stroke="#d2d2d2"></path><path d="M0 748L155 857L103 699Z" fill="#f1f1f1" stroke="#d2d2d2"></path><path d="M1703 258L1665 124L1549 211Z" fill="#eeeeee" stroke="#d2d2d2"></path><path d="M1920 589L1815 469L1776 641Z" fill="#ffffff" stroke="#d2d2d2"></path><path d="M1776 641L1815 469L1691 557Z" fill="#ffffff" stroke="#d2d2d2"></path><path d="M1703 258L1773 216L1665 124Z" fill="#ffffff" stroke="#d2d2d2"></path><path d="M425 0L262 0L293 142Z" fill="#ffffff" stroke="#d2d2d2"></path><path d="M0 321L0 480L114 379Z" fill="#ffffff" stroke="#d2d2d2"></path><path d="M1749 1080L1799 940L1647 994Z" fill="#ffffff" stroke="#d2d2d2"></path><path d="M1920 707L1776 641L1763 679Z" fill="#f5f5f5" stroke="#d2d2d2"></path><path d="M90 565L0 642L103 699Z" fill="#f8f8f8" stroke="#d2d2d2"></path><path d="M0 480L0 642L90 565Z" fill="#f1f1f1" stroke="#d2d2d2"></path><path d="M0 480L137 464L114 379Z" fill="#ffffff" stroke="#d2d2d2"></path><path d="M1815 469L1816 332L1660 338Z" fill="#fcfcfc" stroke="#d2d2d2"></path><path d="M103 957L110 1080L231 1080Z" fill="#ffffff" stroke="#d2d2d2"></path><path d="M0 990L110 1080L103 957Z" fill="#ffffff" stroke="#d2d2d2"></path><path d="M0 642L0 748L103 699Z" fill="#f8f8f8" stroke="#d2d2d2"></path><path d="M1632 1080L1749 1080L1647 994Z" fill="#ffffff" stroke="#d2d2d2"></path><path d="M1816 332L1773 216L1703 258Z" fill="#f8f8f8" stroke="#d2d2d2"></path><path d="M0 321L114 379L158 272Z" fill="#eeeeee" stroke="#d2d2d2"></path><path d="M1665 124L1644 0L1519 159Z" fill="#ffffff" stroke="#d2d2d2"></path><path d="M1779 0L1644 0L1665 124Z" fill="#fcfcfc" stroke="#d2d2d2"></path><path d="M0 748L0 861L155 857Z" fill="#fcfcfc" stroke="#d2d2d2"></path><path d="M262 0L109 122L293 142Z" fill="#ffffff" stroke="#d2d2d2"></path><path d="M0 242L0 321L158 272Z" fill="#ffffff" stroke="#d2d2d2"></path><path d="M1920 227L1794 153L1773 216Z" fill="#f5f5f5" stroke="#d2d2d2"></path><path d="M1773 216L1794 153L1665 124Z" fill="#f1f1f1" stroke="#d2d2d2"></path><path d="M1920 707L1763 679L1750 853Z" fill="#fcfcfc" stroke="#d2d2d2"></path><path d="M1815 469L1920 338L1816 332Z" fill="#ffffff" stroke="#d2d2d2"></path><path d="M1816 332L1920 227L1773 216Z" fill="#ffffff" stroke="#d2d2d2"></path><path d="M1920 858L1920 707L1750 853Z" fill="#f8f8f8" stroke="#d2d2d2"></path><path d="M1920 858L1750 853L1799 940Z" fill="#f1f1f1" stroke="#d2d2d2"></path><path d="M0 861L0 990L103 957Z" fill="#f5f5f5" stroke="#d2d2d2"></path><path d="M1920 589L1920 474L1815 469Z" fill="#ffffff" stroke="#d2d2d2"></path><path d="M109 122L0 242L158 272Z" fill="#ffffff" stroke="#d2d2d2"></path><path d="M262 0L139 0L109 122Z" fill="#f1f1f1" stroke="#d2d2d2"></path><path d="M109 122L0 149L0 242Z" fill="#ffffff" stroke="#d2d2d2"></path><path d="M1920 1004L1920 858L1799 940Z" fill="#ffffff" stroke="#d2d2d2"></path><path d="M1920 474L1920 338L1815 469Z" fill="#eeeeee" stroke="#d2d2d2"></path><path d="M0 990L0 1080L110 1080Z" fill="#ffffff" stroke="#d2d2d2"></path><path d="M0 0L0 149L109 122Z" fill="#ffffff" stroke="#d2d2d2"></path><path d="M1920 0L1779 0L1794 153Z" fill="#ffffff" stroke="#d2d2d2"></path><path d="M1794 153L1779 0L1665 124Z" fill="#f8f8f8" stroke="#d2d2d2"></path><path d="M1749 1080L1920 1004L1799 940Z" fill="#fcfcfc" stroke="#d2d2d2"></path><path d="M1920 338L1920 227L1816 332Z" fill="#ffffff" stroke="#d2d2d2"></path><path d="M1749 1080L1920 1080L1920 1004Z" fill="#f5f5f5" stroke="#d2d2d2"></path><path d="M1920 227L1920 153L1794 153Z" fill="#ffffff" stroke="#d2d2d2"></path><path d="M139 0L0 0L109 122Z" fill="#ffffff" stroke="#d2d2d2"></path><path d="M1920 153L1920 0L1794 153Z" fill="#eeeeee" stroke="#d2d2d2"></path></g></svg>